solid ASCII
  facet normal -0.000000e+00 -1.000000e+00 0.000000e+00
    outer loop
      vertex   -4.285305e+01 2.944008e+01 1.909924e+00
      vertex   -4.285305e+01 2.944008e+01 9.409924e+00
      vertex   -4.365305e+01 2.944008e+01 1.909924e+00
    endloop
  endfacet
  facet normal 0.000000e+00 -1.000000e+00 0.000000e+00
    outer loop
      vertex   -4.365305e+01 2.944008e+01 1.909924e+00
      vertex   -4.285305e+01 2.944008e+01 9.409924e+00
      vertex   -4.365305e+01 2.944008e+01 9.409924e+00
    endloop
  endfacet
  facet normal -1.000000e+00 -4.674731e-31 -9.473903e-16
    outer loop
      vertex   -4.365305e+01 2.944008e+01 1.909924e+00
      vertex   -4.365305e+01 2.944008e+01 9.409924e+00
      vertex   -4.365305e+01 3.034008e+01 1.909924e+00
    endloop
  endfacet
  facet normal -1.000000e+00 3.036507e-16 -9.109522e-16
    outer loop
      vertex   -4.365305e+01 3.034008e+01 1.909924e+00
      vertex   -4.365305e+01 2.944008e+01 9.409924e+00
      vertex   -4.365305e+01 3.034008e+01 9.709924e+00
    endloop
  endfacet
  facet normal -1.000000e+00 -0.000000e+00 0.000000e+00
    outer loop
      vertex   -4.365305e+01 3.034008e+01 9.709924e+00
      vertex   -4.365305e+01 2.944008e+01 9.409924e+00
      vertex   -4.365305e+01 2.399008e+01 9.709924e+00
    endloop
  endfacet
  facet normal -1.000000e+00 0.000000e+00 0.000000e+00
    outer loop
      vertex   -4.365305e+01 2.399008e+01 9.709924e+00
      vertex   -4.365305e+01 2.944008e+01 9.409924e+00
      vertex   -4.365305e+01 2.399008e+01 9.409924e+00
    endloop
  endfacet
  facet normal 0.000000e+00 1.000000e+00 -0.000000e+00
    outer loop
      vertex   -4.365305e+01 3.034008e+01 1.909924e+00
      vertex   -4.365305e+01 3.034008e+01 9.709924e+00
      vertex   -4.135305e+01 3.034008e+01 1.909924e+00
    endloop
  endfacet
  facet normal 0.000000e+00 1.000000e+00 0.000000e+00
    outer loop
      vertex   -4.135305e+01 3.034008e+01 1.909924e+00
      vertex   -4.365305e+01 3.034008e+01 9.709924e+00
      vertex   -4.135305e+01 3.034008e+01 9.709924e+00
    endloop
  endfacet
  facet normal -1.000000e+00 -0.000000e+00 -1.894781e-15
    outer loop
      vertex   -4.285305e+01 2.944008e+01 1.909924e+00
      vertex   -4.285305e+01 2.399008e+01 1.909924e+00
      vertex   -4.285305e+01 2.944008e+01 9.409924e+00
    endloop
  endfacet
  facet normal -1.000000e+00 -0.000000e+00 -1.894781e-15
    outer loop
      vertex   -4.285305e+01 2.944008e+01 9.409924e+00
      vertex   -4.285305e+01 2.399008e+01 1.909924e+00
      vertex   -4.285305e+01 2.399008e+01 9.409924e+00
    endloop
  endfacet
  facet normal -0.000000e+00 -0.000000e+00 -1.000000e+00
    outer loop
      vertex   -4.285305e+01 2.944008e+01 9.409924e+00
      vertex   -4.285305e+01 2.399008e+01 9.409924e+00
      vertex   -4.365305e+01 2.944008e+01 9.409924e+00
    endloop
  endfacet
  facet normal 0.000000e+00 0.000000e+00 -1.000000e+00
    outer loop
      vertex   -4.365305e+01 2.944008e+01 9.409924e+00
      vertex   -4.285305e+01 2.399008e+01 9.409924e+00
      vertex   -4.365305e+01 2.399008e+01 9.409924e+00
    endloop
  endfacet
  facet normal 0.000000e+00 0.000000e+00 -1.000000e+00
    outer loop
      vertex   -4.365305e+01 2.399008e+01 9.409924e+00
      vertex   -4.285305e+01 2.399008e+01 9.409924e+00
      vertex   -4.215305e+01 2.199008e+01 9.409924e+00
    endloop
  endfacet
  facet normal 0.000000e+00 -0.000000e+00 -1.000000e+00
    outer loop
      vertex   -4.365305e+01 2.399008e+01 9.409924e+00
      vertex   -4.215305e+01 2.199008e+01 9.409924e+00
      vertex   -4.635305e+01 2.199008e+01 9.409924e+00
    endloop
  endfacet
  facet normal 0.000000e+00 0.000000e+00 -1.000000e+00
    outer loop
      vertex   -4.285305e+01 2.399008e+01 9.409924e+00
      vertex   -4.215305e+01 2.399008e+01 9.409924e+00
      vertex   -4.215305e+01 2.199008e+01 9.409924e+00
    endloop
  endfacet
  facet normal -0.000000e+00 0.000000e+00 -1.000000e+00
    outer loop
      vertex   -4.365305e+01 2.399008e+01 9.409924e+00
      vertex   -4.635305e+01 2.199008e+01 9.409924e+00
      vertex   -4.535305e+01 2.399008e+01 9.409924e+00
    endloop
  endfacet
  facet normal -0.000000e+00 0.000000e+00 -1.000000e+00
    outer loop
      vertex   -4.535305e+01 2.399008e+01 9.409924e+00
      vertex   -4.635305e+01 2.199008e+01 9.409924e+00
      vertex   -4.635305e+01 2.549008e+01 9.409924e+00
    endloop
  endfacet
  facet normal 0.000000e+00 0.000000e+00 -1.000000e+00
    outer loop
      vertex   -4.535305e+01 2.399008e+01 9.409924e+00
      vertex   -4.635305e+01 2.549008e+01 9.409924e+00
      vertex   -4.535305e+01 2.549008e+01 9.409924e+00
    endloop
  endfacet
  facet normal 1.000000e+00 -0.000000e+00 0.000000e+00
    outer loop
      vertex   -4.535305e+01 2.399008e+01 1.909924e+00
      vertex   -4.535305e+01 2.399008e+01 4.099239e-01
      vertex   -4.535305e+01 2.549008e+01 1.909924e+00
    endloop
  endfacet
  facet normal 1.000000e+00 0.000000e+00 0.000000e+00
    outer loop
      vertex   -4.535305e+01 2.549008e+01 1.909924e+00
      vertex   -4.535305e+01 2.399008e+01 4.099239e-01
      vertex   -4.535305e+01 2.549008e+01 4.099239e-01
    endloop
  endfacet
  facet normal 1.000000e+00 -0.000000e+00 0.000000e+00
    outer loop
      vertex   -4.535305e+01 2.399008e+01 1.090992e+01
      vertex   -4.535305e+01 2.399008e+01 9.409924e+00
      vertex   -4.535305e+01 2.549008e+01 1.090992e+01
    endloop
  endfacet
  facet normal 1.000000e+00 0.000000e+00 0.000000e+00
    outer loop
      vertex   -4.535305e+01 2.549008e+01 1.090992e+01
      vertex   -4.535305e+01 2.399008e+01 9.409924e+00
      vertex   -4.535305e+01 2.549008e+01 9.409924e+00
    endloop
  endfacet
  facet normal 0.000000e+00 -2.220446e-16 1.000000e+00
    outer loop
      vertex   -4.215305e+01 2.399008e+01 1.909924e+00
      vertex   -4.285305e+01 2.399008e+01 1.909924e+00
      vertex   -4.215305e+01 2.199008e+01 1.909924e+00
    endloop
  endfacet
  facet normal -1.776357e-16 -2.842171e-16 1.000000e+00
    outer loop
      vertex   -4.215305e+01 2.199008e+01 1.909924e+00
      vertex   -4.285305e+01 2.399008e+01 1.909924e+00
      vertex   -4.535305e+01 2.399008e+01 1.909924e+00
    endloop
  endfacet
  facet normal 0.000000e+00 0.000000e+00 1.000000e+00
    outer loop
      vertex   -4.215305e+01 2.199008e+01 1.909924e+00
      vertex   -4.535305e+01 2.399008e+01 1.909924e+00
      vertex   -4.635305e+01 2.199008e+01 1.909924e+00
    endloop
  endfacet
  facet normal 0.000000e+00 0.000000e+00 1.000000e+00
    outer loop
      vertex   -4.635305e+01 2.199008e+01 1.909924e+00
      vertex   -4.535305e+01 2.399008e+01 1.909924e+00
      vertex   -4.635305e+01 2.549008e+01 1.909924e+00
    endloop
  endfacet
  facet normal -0.000000e+00 0.000000e+00 1.000000e+00
    outer loop
      vertex   -4.635305e+01 2.549008e+01 1.909924e+00
      vertex   -4.535305e+01 2.399008e+01 1.909924e+00
      vertex   -4.535305e+01 2.549008e+01 1.909924e+00
    endloop
  endfacet
  facet normal 0.000000e+00 1.000000e+00 0.000000e+00
    outer loop
      vertex   -4.535305e+01 2.549008e+01 1.909924e+00
      vertex   -4.535305e+01 2.549008e+01 4.099239e-01
      vertex   -4.635305e+01 2.549008e+01 1.909924e+00
    endloop
  endfacet
  facet normal 0.000000e+00 1.000000e+00 0.000000e+00
    outer loop
      vertex   -4.635305e+01 2.549008e+01 1.909924e+00
      vertex   -4.535305e+01 2.549008e+01 4.099239e-01
      vertex   -4.635305e+01 2.549008e+01 4.099239e-01
    endloop
  endfacet
  facet normal 0.000000e+00 0.000000e+00 1.000000e+00
    outer loop
      vertex   -4.135305e+01 2.399008e+01 1.090992e+01
      vertex   -4.535305e+01 2.399008e+01 1.090992e+01
      vertex   -4.135305e+01 2.199008e+01 1.090992e+01
    endloop
  endfacet
  facet normal 0.000000e+00 0.000000e+00 1.000000e+00
    outer loop
      vertex   -4.135305e+01 2.199008e+01 1.090992e+01
      vertex   -4.535305e+01 2.399008e+01 1.090992e+01
      vertex   -4.635305e+01 2.199008e+01 1.090992e+01
    endloop
  endfacet
  facet normal 0.000000e+00 0.000000e+00 1.000000e+00
    outer loop
      vertex   -4.635305e+01 2.199008e+01 1.090992e+01
      vertex   -4.535305e+01 2.399008e+01 1.090992e+01
      vertex   -4.635305e+01 2.549008e+01 1.090992e+01
    endloop
  endfacet
  facet normal -0.000000e+00 0.000000e+00 1.000000e+00
    outer loop
      vertex   -4.635305e+01 2.549008e+01 1.090992e+01
      vertex   -4.535305e+01 2.399008e+01 1.090992e+01
      vertex   -4.535305e+01 2.549008e+01 1.090992e+01
    endloop
  endfacet
  facet normal 0.000000e+00 1.000000e+00 0.000000e+00
    outer loop
      vertex   -4.535305e+01 2.549008e+01 1.090992e+01
      vertex   -4.535305e+01 2.549008e+01 9.409924e+00
      vertex   -4.635305e+01 2.549008e+01 1.090992e+01
    endloop
  endfacet
  facet normal 0.000000e+00 1.000000e+00 0.000000e+00
    outer loop
      vertex   -4.635305e+01 2.549008e+01 1.090992e+01
      vertex   -4.535305e+01 2.549008e+01 9.409924e+00
      vertex   -4.635305e+01 2.549008e+01 9.409924e+00
    endloop
  endfacet
  facet normal -1.000000e+00 -0.000000e+00 -0.000000e+00
    outer loop
      vertex   -4.635305e+01 2.549008e+01 1.090992e+01
      vertex   -4.635305e+01 2.549008e+01 9.409924e+00
      vertex   -4.635305e+01 2.199008e+01 1.090992e+01
    endloop
  endfacet
  facet normal -1.000000e+00 0.000000e+00 0.000000e+00
    outer loop
      vertex   -4.635305e+01 2.199008e+01 1.090992e+01
      vertex   -4.635305e+01 2.549008e+01 9.409924e+00
      vertex   -4.635305e+01 2.199008e+01 9.409924e+00
    endloop
  endfacet
  facet normal -1.000000e+00 0.000000e+00 0.000000e+00
    outer loop
      vertex   -4.635305e+01 2.199008e+01 4.099239e-01
      vertex   -4.635305e+01 2.199008e+01 1.909924e+00
      vertex   -4.635305e+01 2.549008e+01 4.099239e-01
    endloop
  endfacet
  facet normal -1.000000e+00 0.000000e+00 0.000000e+00
    outer loop
      vertex   -4.635305e+01 2.549008e+01 4.099239e-01
      vertex   -4.635305e+01 2.199008e+01 1.909924e+00
      vertex   -4.635305e+01 2.549008e+01 1.909924e+00
    endloop
  endfacet
  facet normal 5.551115e-16 -4.934325e-16 -1.000000e+00
    outer loop
      vertex   -4.365305e+01 2.944008e+01 1.909924e+00
      vertex   -4.365305e+01 3.034008e+01 1.909924e+00
      vertex   -4.285305e+01 2.944008e+01 1.909924e+00
    endloop
  endfacet
  facet normal 4.827057e-16 -5.577932e-16 -1.000000e+00
    outer loop
      vertex   -4.285305e+01 2.944008e+01 1.909924e+00
      vertex   -4.365305e+01 3.034008e+01 1.909924e+00
      vertex   -4.135305e+01 3.034008e+01 1.909924e+00
    endloop
  endfacet
  facet normal 1.374382e-16 1.765261e-17 -1.000000e+00
    outer loop
      vertex   -4.285305e+01 2.944008e+01 1.909924e+00
      vertex   -4.135305e+01 3.034008e+01 1.909924e+00
      vertex   -4.215305e+01 2.399008e+01 1.909924e+00
    endloop
  endfacet
  facet normal 0.000000e+00 3.496765e-17 -1.000000e+00
    outer loop
      vertex   -4.215305e+01 2.399008e+01 1.909924e+00
      vertex   -4.135305e+01 3.034008e+01 1.909924e+00
      vertex   -4.135305e+01 2.399008e+01 1.909924e+00
    endloop
  endfacet
  facet normal 0.000000e+00 0.000000e+00 -1.000000e+00
    outer loop
      vertex   -4.215305e+01 2.399008e+01 1.909924e+00
      vertex   -4.285305e+01 2.399008e+01 1.909924e+00
      vertex   -4.285305e+01 2.944008e+01 1.909924e+00
    endloop
  endfacet
  facet normal -0.000000e+00 1.000000e+00 0.000000e+00
    outer loop
      vertex   -4.535305e+01 2.399008e+01 1.909924e+00
      vertex   -4.285305e+01 2.399008e+01 1.909924e+00
      vertex   -4.535305e+01 2.399008e+01 4.099239e-01
    endloop
  endfacet
  facet normal 0.000000e+00 1.000000e+00 0.000000e+00
    outer loop
      vertex   -4.535305e+01 2.399008e+01 4.099239e-01
      vertex   -4.285305e+01 2.399008e+01 1.909924e+00
      vertex   -4.135305e+01 2.399008e+01 4.099239e-01
    endloop
  endfacet
  facet normal 0.000000e+00 1.000000e+00 0.000000e+00
    outer loop
      vertex   -4.135305e+01 2.399008e+01 4.099239e-01
      vertex   -4.285305e+01 2.399008e+01 1.909924e+00
      vertex   -4.215305e+01 2.399008e+01 1.909924e+00
    endloop
  endfacet
  facet normal 0.000000e+00 1.000000e+00 -0.000000e+00
    outer loop
      vertex   -4.135305e+01 2.399008e+01 4.099239e-01
      vertex   -4.215305e+01 2.399008e+01 1.909924e+00
      vertex   -4.135305e+01 2.399008e+01 1.909924e+00
    endloop
  endfacet
  facet normal 0.000000e+00 1.000000e+00 0.000000e+00
    outer loop
      vertex   -4.535305e+01 2.399008e+01 9.409924e+00
      vertex   -4.535305e+01 2.399008e+01 1.090992e+01
      vertex   -4.365305e+01 2.399008e+01 9.709924e+00
    endloop
  endfacet
  facet normal 0.000000e+00 1.000000e+00 -0.000000e+00
    outer loop
      vertex   -4.365305e+01 2.399008e+01 9.709924e+00
      vertex   -4.535305e+01 2.399008e+01 1.090992e+01
      vertex   -4.135305e+01 2.399008e+01 1.090992e+01
    endloop
  endfacet
  facet normal 0.000000e+00 1.000000e+00 0.000000e+00
    outer loop
      vertex   -4.365305e+01 2.399008e+01 9.709924e+00
      vertex   -4.135305e+01 2.399008e+01 1.090992e+01
      vertex   -4.135305e+01 2.399008e+01 9.709924e+00
    endloop
  endfacet
  facet normal 0.000000e+00 1.000000e+00 0.000000e+00
    outer loop
      vertex   -4.365305e+01 2.399008e+01 9.709924e+00
      vertex   -4.365305e+01 2.399008e+01 9.409924e+00
      vertex   -4.535305e+01 2.399008e+01 9.409924e+00
    endloop
  endfacet
  facet normal 1.000000e+00 -3.185386e-32 9.109522e-16
    outer loop
      vertex   -4.135305e+01 3.034008e+01 1.909924e+00
      vertex   -4.135305e+01 3.034008e+01 9.709924e+00
      vertex   -4.135305e+01 2.399008e+01 1.909924e+00
    endloop
  endfacet
  facet normal 1.000000e+00 1.118965e-15 -0.000000e+00
    outer loop
      vertex   -4.135305e+01 2.399008e+01 1.909924e+00
      vertex   -4.135305e+01 3.034008e+01 9.709924e+00
      vertex   -4.135305e+01 2.399008e+01 9.709924e+00
    endloop
  endfacet
  facet normal 1.000000e+00 0.000000e+00 -0.000000e+00
    outer loop
      vertex   -4.135305e+01 2.399008e+01 1.909924e+00
      vertex   -4.135305e+01 2.399008e+01 9.709924e+00
      vertex   -4.135305e+01 2.199008e+01 1.090992e+01
    endloop
  endfacet
  facet normal 1.000000e+00 -0.000000e+00 0.000000e+00
    outer loop
      vertex   -4.135305e+01 2.199008e+01 1.090992e+01
      vertex   -4.135305e+01 2.399008e+01 9.709924e+00
      vertex   -4.135305e+01 2.399008e+01 1.090992e+01
    endloop
  endfacet
  facet normal 1.000000e+00 0.000000e+00 0.000000e+00
    outer loop
      vertex   -4.135305e+01 2.199008e+01 1.090992e+01
      vertex   -4.135305e+01 2.199008e+01 4.099239e-01
      vertex   -4.135305e+01 2.399008e+01 1.909924e+00
    endloop
  endfacet
  facet normal 1.000000e+00 0.000000e+00 0.000000e+00
    outer loop
      vertex   -4.135305e+01 2.399008e+01 1.909924e+00
      vertex   -4.135305e+01 2.199008e+01 4.099239e-01
      vertex   -4.135305e+01 2.399008e+01 4.099239e-01
    endloop
  endfacet
  facet normal 0.000000e+00 -1.000000e+00 0.000000e+00
    outer loop
      vertex   -4.215305e+01 2.399008e+01 1.909924e+00
      vertex   -4.215305e+01 2.399008e+01 9.409924e+00
      vertex   -4.285305e+01 2.399008e+01 1.909924e+00
    endloop
  endfacet
  facet normal 0.000000e+00 -1.000000e+00 0.000000e+00
    outer loop
      vertex   -4.285305e+01 2.399008e+01 1.909924e+00
      vertex   -4.215305e+01 2.399008e+01 9.409924e+00
      vertex   -4.285305e+01 2.399008e+01 9.409924e+00
    endloop
  endfacet
  facet normal 0.000000e+00 0.000000e+00 1.000000e+00
    outer loop
      vertex   -4.365305e+01 2.399008e+01 9.709924e+00
      vertex   -4.135305e+01 2.399008e+01 9.709924e+00
      vertex   -4.365305e+01 3.034008e+01 9.709924e+00
    endloop
  endfacet
  facet normal -0.000000e+00 0.000000e+00 1.000000e+00
    outer loop
      vertex   -4.365305e+01 3.034008e+01 9.709924e+00
      vertex   -4.135305e+01 2.399008e+01 9.709924e+00
      vertex   -4.135305e+01 3.034008e+01 9.709924e+00
    endloop
  endfacet
  facet normal 0.000000e+00 -1.000000e+00 0.000000e+00
    outer loop
      vertex   -4.635305e+01 2.199008e+01 1.090992e+01
      vertex   -4.215305e+01 2.199008e+01 9.409924e+00
      vertex   -4.135305e+01 2.199008e+01 1.090992e+01
    endloop
  endfacet
  facet normal 0.000000e+00 -1.000000e+00 0.000000e+00
    outer loop
      vertex   -4.135305e+01 2.199008e+01 1.090992e+01
      vertex   -4.215305e+01 2.199008e+01 9.409924e+00
      vertex   -4.215305e+01 2.199008e+01 1.909924e+00
    endloop
  endfacet
  facet normal 0.000000e+00 -1.000000e+00 -0.000000e+00
    outer loop
      vertex   -4.135305e+01 2.199008e+01 1.090992e+01
      vertex   -4.215305e+01 2.199008e+01 1.909924e+00
      vertex   -4.135305e+01 2.199008e+01 4.099239e-01
    endloop
  endfacet
  facet normal 0.000000e+00 -1.000000e+00 0.000000e+00
    outer loop
      vertex   -4.135305e+01 2.199008e+01 4.099239e-01
      vertex   -4.215305e+01 2.199008e+01 1.909924e+00
      vertex   -4.635305e+01 2.199008e+01 4.099239e-01
    endloop
  endfacet
  facet normal 0.000000e+00 -1.000000e+00 0.000000e+00
    outer loop
      vertex   -4.635305e+01 2.199008e+01 4.099239e-01
      vertex   -4.215305e+01 2.199008e+01 1.909924e+00
      vertex   -4.635305e+01 2.199008e+01 1.909924e+00
    endloop
  endfacet
  facet normal 0.000000e+00 -1.000000e+00 0.000000e+00
    outer loop
      vertex   -4.635305e+01 2.199008e+01 1.090992e+01
      vertex   -4.635305e+01 2.199008e+01 9.409924e+00
      vertex   -4.215305e+01 2.199008e+01 9.409924e+00
    endloop
  endfacet
  facet normal -0.000000e+00 -0.000000e+00 -1.000000e+00
    outer loop
      vertex   -4.135305e+01 2.399008e+01 4.099239e-01
      vertex   -4.135305e+01 2.199008e+01 4.099239e-01
      vertex   -4.535305e+01 2.399008e+01 4.099239e-01
    endloop
  endfacet
  facet normal 0.000000e+00 -0.000000e+00 -1.000000e+00
    outer loop
      vertex   -4.535305e+01 2.399008e+01 4.099239e-01
      vertex   -4.135305e+01 2.199008e+01 4.099239e-01
      vertex   -4.635305e+01 2.199008e+01 4.099239e-01
    endloop
  endfacet
  facet normal -0.000000e+00 0.000000e+00 -1.000000e+00
    outer loop
      vertex   -4.535305e+01 2.399008e+01 4.099239e-01
      vertex   -4.635305e+01 2.199008e+01 4.099239e-01
      vertex   -4.635305e+01 2.549008e+01 4.099239e-01
    endloop
  endfacet
  facet normal 0.000000e+00 0.000000e+00 -1.000000e+00
    outer loop
      vertex   -4.635305e+01 2.549008e+01 4.099239e-01
      vertex   -4.535305e+01 2.549008e+01 4.099239e-01
      vertex   -4.535305e+01 2.399008e+01 4.099239e-01
    endloop
  endfacet
  facet normal -1.000000e+00 0.000000e+00 0.000000e+00
    outer loop
      vertex   -4.215305e+01 2.199008e+01 1.909924e+00
      vertex   -4.215305e+01 2.199008e+01 9.409924e+00
      vertex   -4.215305e+01 2.399008e+01 1.909924e+00
    endloop
  endfacet
  facet normal -1.000000e+00 0.000000e+00 0.000000e+00
    outer loop
      vertex   -4.215305e+01 2.399008e+01 1.909924e+00
      vertex   -4.215305e+01 2.199008e+01 9.409924e+00
      vertex   -4.215305e+01 2.399008e+01 9.409924e+00
    endloop
  endfacet
endsolid
